<svg width="512" height="512" viewBox="0 0 512 512" style="color:currentColor" xmlns="http://www.w3.org/2000/svg" class="h-full w-full"><rect width="512" height="512" x="0" y="0" rx="0" fill="transparent" stroke="transparent" stroke-width="0" stroke-opacity="0%" paint-order="stroke"></rect><svg width="65px" height="65px" viewBox="0 0 48 48" fill="currentColor" x="223.5" y="223.5" role="img" style="display:inline-block;vertical-align:middle" xmlns="http://www.w3.org/2000/svg"><g fill="currentColor"><g fill="none"><path stroke="currentColor" stroke-width="4" d="M24 44c10.252 0 16-6.954 16-18S31.132 4 24 4S8 14.954 8 26s5.748 18 16 18Z" clip-rule="evenodd"/><path fill="currentColor" d="M21 38a3 3 0 1 0 0-6a3 3 0 0 0 0 6Z"/><path fill="currentColor" fill-rule="evenodd" d="M16 29.668a2 2 0 1 0 0-4a2 2 0 0 0 0 4Z" clip-rule="evenodd"/></g></g></svg></svg>